<svg width="360" height="100" viewBox="0 0 360 100" fill="none" xmlns="http://www.w3.org/2000/svg">
<g clip-path="url(#clip0_4823_94620)">
<path d="M130.233 26.4564C130.834 25.8371 131.55 25.521 132.39 25.521C133.229 25.521 133.933 25.8307 134.508 26.4564C135.083 27.0822 135.373 27.7983 135.373 28.6111V71.6277C135.373 72.4857 135.089 73.2211 134.508 73.8147C133.933 74.4146 133.223 74.7114 132.39 74.7114C131.557 74.7114 130.834 74.4146 130.233 73.8147C129.632 73.2147 129.335 72.4857 129.335 71.6277V28.6111C129.335 27.7983 129.632 27.0822 130.233 26.4564ZM160.815 26.4564C161.39 25.8371 162.094 25.521 162.933 25.521C163.773 25.521 164.49 25.8307 165.09 26.4564C165.691 27.0822 165.988 27.7983 165.988 28.6111V71.6277C165.988 72.4857 165.691 73.2211 165.09 73.8147C164.49 74.4146 163.773 74.7114 162.933 74.7114C162.094 74.7114 161.39 74.4146 160.815 73.8147C160.241 73.2147 159.95 72.4857 159.95 71.6277V53.0999H143.057C142.05 53.0999 141.191 52.8354 140.468 52.3128C139.603 51.7387 139.177 50.9839 139.177 50.0484C139.177 49.113 139.609 48.3582 140.468 47.7841C141.185 47.2099 142.05 46.9196 143.057 46.9196H159.95V28.6047C159.95 27.7918 160.241 27.0757 160.815 26.45V26.4564Z" fill="#1185F0"/>
<path d="M194.316 41.3909C194.794 42.107 194.949 42.8876 194.781 43.7263C194.613 44.5649 194.167 45.1971 193.451 45.6294C192.973 46.01 192.418 46.2035 191.798 46.2035C190.693 46.2035 189.86 45.7261 189.279 44.7649L189.066 44.552L181.014 30.5465L180.872 30.3336C180.394 29.6175 180.239 28.8369 180.407 27.9983C180.575 27.1596 181.02 26.5274 181.737 26.0952C181.976 25.9016 182.241 25.7597 182.525 25.6629C182.815 25.5662 183.1 25.521 183.39 25.521C184.494 25.521 185.327 25.9984 185.908 26.9596L186.051 27.1725L194.174 41.1781L194.316 41.3909ZM210.989 25.521C211.609 25.521 212.184 25.7145 212.713 26.0952C213.385 26.5274 213.804 27.1596 213.972 27.9983C214.14 28.8369 214.011 29.5917 213.578 30.2626L200.425 54.1063H200.354V54.1772L200.283 54.2482C200.231 54.2933 200.212 54.3901 200.212 54.532V71.6212C200.212 72.4793 199.921 73.2147 199.346 73.8082C198.772 74.4082 198.061 74.7049 197.228 74.7049C196.395 74.7049 195.672 74.4082 195.072 73.8082C194.471 73.2083 194.174 72.4793 194.174 71.6212V54.3127C194.219 53.0676 194.581 51.9193 195.252 50.8677L195.323 50.7258L208.406 27.0306L208.477 26.9596C208.768 26.5274 209.136 26.179 209.594 25.921C210.053 25.6565 210.518 25.5274 210.995 25.5274L210.989 25.521Z" fill="#1185F0"/>
<path d="M249.372 25.5209C253.156 25.5209 256.365 26.8756 259.006 29.5787C261.641 32.2817 262.958 35.5525 262.958 39.378C262.958 43.2036 261.641 46.4614 259.006 49.1451C256.372 51.8288 253.162 53.1642 249.372 53.1642H234.707C234.662 53.1642 234.597 53.2029 234.526 53.2739C234.455 53.3449 234.417 53.4287 234.417 53.5255V71.6211C234.417 72.4791 234.126 73.2146 233.551 73.8081C232.977 74.408 232.266 74.7048 231.433 74.7048C230.6 74.7048 229.877 74.408 229.276 73.8081C228.676 73.2081 228.379 72.4791 228.379 71.6211V53.5255C228.379 51.7514 228.999 50.2354 230.245 48.9645C231.491 47.6936 232.977 47.0614 234.701 47.0614H249.365C251.471 47.0614 253.259 46.3066 254.719 44.797C256.178 43.2875 256.908 41.4811 256.908 39.378C256.908 37.2749 256.178 35.4622 254.719 33.959C253.259 32.4494 251.471 31.6947 249.365 31.6947H231.395C230.581 31.6947 229.871 31.3979 229.276 30.7979C228.676 30.198 228.379 29.469 228.379 28.6045C228.379 27.7401 228.676 27.0111 229.276 26.4111C229.877 25.8112 230.581 25.5144 231.395 25.5144H249.365L249.372 25.5209Z" fill="#1185F0"/>
<path d="M311.189 68.757C312.48 69.286 313.132 70.2407 313.132 71.6277C313.132 72.4857 312.835 73.2212 312.235 73.8147C311.634 74.4147 310.904 74.7114 310.046 74.7114H288.911C285.746 74.7114 283.028 73.5631 280.755 71.2665C278.475 68.9698 277.339 66.17 277.339 62.867C277.339 60.8542 277.817 58.9769 278.779 57.2287C279.735 55.4804 281.052 54.0805 282.731 53.0289L285.604 51.1645C285.985 50.9258 286.179 50.5775 286.179 50.1259C286.179 49.6743 285.985 49.3259 285.604 49.0873L282.731 47.2229C281.007 46.1713 279.676 44.7714 278.74 43.0231C277.804 41.2749 277.339 39.3976 277.339 37.3848C277.339 34.1269 278.475 31.34 280.755 29.0176C283.028 26.6951 285.753 25.5339 288.911 25.5339H310.046C310.904 25.5339 311.641 25.8307 312.235 26.4307C312.835 27.0306 313.132 27.7596 313.132 28.6241C313.132 29.4885 312.835 30.2175 312.235 30.8175C311.634 31.4174 310.904 31.7142 310.046 31.7142H288.911C287.425 31.7142 286.134 32.2625 285.03 33.3657C283.925 34.4688 283.377 35.8042 283.377 37.3848C283.377 39.3976 284.216 40.9523 285.895 42.0555L288.839 43.8489C291.138 45.3327 292.275 47.4422 292.255 50.1711C292.23 52.8999 291.093 54.9836 288.839 56.4158L285.966 58.2092C284.242 59.3124 283.377 60.8671 283.377 62.8799C283.377 64.4605 283.925 65.8023 285.03 66.899C286.134 68.0022 287.425 68.5505 288.911 68.5505H311.195V68.7634L311.189 68.757Z" fill="#1185F0"/>
<path d="M356.474 69.0408C357.191 69.473 357.65 70.1052 357.843 70.9439C358.037 71.7825 357.914 72.5567 357.482 73.2792C356.907 74.2404 356.042 74.7178 354.892 74.7178C354.318 74.7178 353.788 74.5501 353.31 74.2146L330.742 59.9962C329.45 59.1833 328.527 58.0479 327.971 56.5835C327.423 55.1255 327.351 53.6418 327.758 52.1322C328.165 50.6226 328.979 49.4033 330.206 48.4679C331.433 47.5325 332.827 47.068 334.409 47.068H346.414C348.474 47.068 350.249 46.3261 351.735 44.8423C353.22 43.3134 353.962 41.4942 353.962 39.3846C353.962 37.2751 353.22 35.4687 351.735 33.9656C350.249 32.456 348.474 31.7012 346.414 31.7012H330.671C329.857 31.7012 329.147 31.4045 328.553 30.8045C327.952 30.2046 327.655 29.4756 327.655 28.6111C327.655 27.7467 327.952 27.0177 328.553 26.4177C329.153 25.8178 329.857 25.521 330.671 25.521H346.414C348.28 25.521 350.056 25.9016 351.735 26.6693C353.362 27.3402 354.802 28.3208 356.048 29.6111C357.294 30.9013 358.25 32.3657 358.922 33.9914C359.638 35.7139 360 37.5073 360 39.3782C360 43.2102 358.67 46.4616 356.009 49.1453C353.349 51.829 350.153 53.1644 346.414 53.1644H334.409C333.977 53.1644 333.712 53.3773 333.622 53.8095C333.48 54.2417 333.596 54.5514 333.983 54.7449L356.481 69.0343L356.474 69.0408Z" fill="#1185F0"/>
<path d="M63.8896 55.7965C63.6442 57.119 63.0114 58.3383 62.0686 59.2995C61.1323 60.2607 59.9247 60.9252 58.6139 61.2026C57.2966 61.48 55.9276 61.3639 54.6813 60.8671C53.4351 60.3704 52.3567 59.5124 51.5947 58.4028C49.8706 56.0223 50.8715 52.7902 49.0892 50.442C48.437 49.5066 47.5717 48.7389 46.5644 48.197C45.557 47.6551 44.4399 47.3583 43.3034 47.3325C39.1255 47.7325 36.9945 50.0033 36.6394 54.345C36.3359 58.5576 34.3728 60.8155 30.6663 61.2348C26.9533 61.6542 25.4099 63.8024 25.7264 67.8215C26.7402 71.6277 28.9099 73.6534 32.371 74.0276C35.8516 74.4017 38.0148 76.2919 38.9834 79.8143C39.5 85.601 34.7861 86.2461 31.4476 83.6076C30.1949 82.627 29.2521 81.311 28.7161 79.8143C27.2697 76.3048 25.1 74.4082 22.1296 74.0276C20.696 73.9308 19.3594 73.2986 18.3778 72.247C15.8853 69.7053 15.8401 65.9249 13.6058 63.2089C12.1594 61.4735 9.50537 61.8542 8.06537 60.093C7.61336 59.5188 7.213 58.8995 6.87076 58.2479C5.48242 55.6352 5.48887 49.8098 8.13641 47.8357C9.81533 46.5777 13.2571 47.2035 13.9739 54.345C14.4905 58.577 16.2727 60.8542 19.4498 61.2413C22.6268 60.8607 24.1895 58.635 24.3768 54.345C24.564 50.0549 26.5465 47.6938 30.3047 47.268C37.5369 46.4487 38.5701 38.0234 34.5988 34.9656C33.669 34.2946 32.5583 33.914 31.4089 33.8753C25.0031 33.1528 26.3915 26.4435 29.7622 23.5921C30.8729 22.5922 32.3 22.0116 33.7917 21.96C36.8718 22.3019 38.2989 24.1792 38.131 27.6951C37.9631 31.3981 39.8551 33.4818 43.7425 33.8753C48.8051 34.3656 50.1095 37.6106 50.3291 40.2427C50.7036 44.5391 52.983 46.8487 57.3095 47.2874C65.1682 48.1067 63.9154 55.6933 63.8896 55.79V55.7965Z" fill="#1185F0"/>
<path d="M60.7512 78.511C59.4016 83.5365 52.97 84.7493 50.4903 80.4593C48.566 77.1498 50.8132 72.6469 55.8371 72.4082C60.3056 72.6275 61.4033 76.1112 60.7576 78.5175L60.7512 78.511Z" fill="#094F90"/>
<path d="M66.537 88.0525C64.4319 91.3361 59.4274 93.336 58.659 89.5943C58.0972 86.8784 60.7641 83.2657 64.5611 83.0786C67.6477 83.2463 67.9899 85.8075 66.537 88.0718" fill="#094F90"/>
<path d="M78.6318 88.0523C75.9778 90.665 72.0388 92.6391 72.0129 90.9489C72.0129 89.0458 76.6171 83.3106 80.0395 83.0461C82.0671 83.2203 80.9435 85.7686 78.593 88.0394" fill="#094F90"/>
<path d="M79.1418 78.5111C76.9011 82.6593 71.8256 84.8656 70.7085 81.2658C69.7915 78.2918 72.7232 72.6793 77.2175 72.4019C80.6787 72.6276 80.4139 76.1048 79.1095 78.5111" fill="#094F90"/>
<path d="M83.5652 88.0525C81.3955 89.9427 79.2258 91.478 78.6963 91.5942V91.5232C78.9869 91.0523 86.8972 83.3237 88.0337 83.0657H88.0918C88.1499 83.5495 86.0061 85.9171 83.591 88.0396" fill="#094F90"/>
<path d="M50.3806 99.9549C47.21 99.8388 44.2461 99.4001 43.7166 99.084V99.0066C44.2977 98.8453 56.5474 98.6711 57.6968 99.3227L57.7356 99.3872C57.4385 99.8194 53.9257 100.11 50.3483 99.9549" fill="#094F90"/>
<path d="M50.4388 0C50.4388 0 49.638 0 49.1279 0.0387072L44.0007 0.574157C46.2867 0.445133 56.2375 0.438681 56.4764 0.43223V0.361267C55.9921 0.103219 53.2736 0.0064512 50.4388 0.0064512V0Z" fill="#094F90"/>
<path d="M73.4981 67.0473C72.0517 72.6599 65.4458 74.3888 62.9597 69.8084C60.9062 66.028 63.5667 60.3574 68.7455 60.0671C73.1882 60.3187 74.1826 64.2991 73.4723 67.0409" fill="#094F90"/>
<path d="M90.1904 78.511C88.0207 81.6786 84.7985 84.2978 84.5402 82.4785C84.2302 80.2593 88.6277 72.7308 91.5271 72.4082C93.0704 72.6082 92.076 75.7306 90.1904 78.5175V78.511Z" fill="#094F90"/>
<path d="M90.7071 67.0472C89.0411 71.776 85.0246 74.0339 83.5459 71.0728C81.9961 67.9633 84.437 60.4283 88.7247 60.0735C91.6951 60.3251 91.6757 64.3055 90.7071 67.0472Z" fill="#094F90"/>
<path d="M97.7521 67.0472C96.5381 70.4599 95.1174 72.9565 94.7817 72.2792C94.2521 71.247 97.4808 60.5122 99.0242 60.0735C99.7474 60.3251 98.7013 64.4151 97.7521 67.0472Z" fill="#094F90"/>
<path d="M85.0246 54.1254C84.3595 59.6412 79.0967 62.0862 76.2232 58.1639C73.3497 54.2416 75.1771 46.9582 80.201 46.584C84.1206 46.842 85.3798 51.1385 85.0246 54.0932" fill="#094F90"/>
<path d="M42.4187 60.1057C36.8265 60.6799 35.1864 67.544 39.8228 71.0663C40.9335 71.9179 42.2895 72.3824 43.6908 72.3953C37.4271 72.0856 35.2639 64.9248 39.0737 61.5379C40.1973 60.596 41.6115 60.0864 43.0708 60.0928H42.4057" fill="#094F90"/>
<path d="M33.3201 88.0523C34.321 90.0844 34.3468 92.4391 31.2667 91.3037C26.966 89.7103 23.4468 84.5364 25.8231 83.2784C26.1395 83.1365 26.4753 83.0655 26.824 83.0591C29.5296 83.2268 32.1901 85.7557 33.333 88.0523" fill="#094F90"/>
<path d="M49.9027 88.0525C49.5669 91.6716 45.1953 93.1167 42.1732 89.5943C39.8485 86.9106 40.6751 83.2657 44.7303 83.0786C48.2367 83.2463 50.1158 85.7494 49.9027 88.0718" fill="#094F90"/>
<path d="M1.99538 54.1254C2.16973 57.8349 1.89851 60.3767 1.38838 60.0605C0.587663 59.538 -0.852337 47.2162 0.665151 46.6292C1.38838 46.9001 1.85977 51.3837 1.98892 54.1383" fill="#094F90"/>
<path d="M49.7025 67.0473C49.1407 72.5889 42.0505 74.3436 38.557 69.8084C35.9031 66.3635 37.1106 60.4026 43.0837 60.0671C48.1075 60.3187 49.9802 64.2991 49.7025 67.0409V67.0473Z" fill="#094F90"/>
<path d="M20.7154 78.511C21.8842 81.4076 21.5742 83.8397 19.03 82.8527C14.8004 81.2076 10.997 73.6791 13.8059 72.5243C14.0126 72.4598 14.2321 72.4211 14.4517 72.4082C17.2736 72.634 19.792 76.2725 20.7154 78.5175" fill="#094F90"/>
<path d="M9.30503 67.0472C10.1832 70.4599 9.83454 73.3178 7.92961 72.1114C4.74611 70.1889 2.16961 60.8218 4.62342 60.1057C4.70091 60.1057 4.78485 60.1057 4.86234 60.1057C6.76728 60.3509 8.60118 64.3312 9.30503 67.0795" fill="#094F90"/>
<path d="M61.6487 28.3207C61.7585 33.3075 55.4625 35.5589 51.601 31.9398C48.1269 28.6626 49.7542 22.534 55.4044 22.2437C57.0252 22.2888 58.562 22.9468 59.7244 24.0758C60.8802 25.2112 61.5712 26.7401 61.6487 28.3594" fill="#094F90"/>
<path d="M18.1518 28.3206C16.2857 32.8042 12.2692 35.2299 10.9971 32.6623C9.45373 29.5335 13.6446 22.5339 17.2091 22.2307C19.6629 22.4436 19.0882 26.095 18.1518 28.3464" fill="#094F90"/>
<path d="M6.72203 28.3208C4.91396 31.9399 3.37064 34.2559 3.21567 33.5592C2.93154 32.3786 7.55504 22.6373 9.00149 22.2051C9.59558 22.4567 6.72203 28.2628 6.6962 28.3208" fill="#094F90"/>
<path d="M57.5547 9.08965C58.3361 12.1798 54.5521 13.5732 51.8722 11.9282C48.6629 9.95411 49.9802 6.03178 52.518 5.51568C52.7182 5.48343 52.9183 5.46407 53.1185 5.45117C54.1323 5.54794 55.0945 5.94146 55.8887 6.58658C56.6765 7.2317 57.2642 8.09616 57.5612 9.07029" fill="#094F90"/>
<path d="M50.116 3.12874C49.806 5.29634 46.3901 6.16725 45.415 4.80605C44.4399 3.44485 47.0616 1.18693 48.7987 1.11597C49.9287 1.17403 50.2451 2.45782 50.116 3.12874Z" fill="#094F90"/>
<path d="M74.4279 40.662C74.4795 46.2552 68.5645 48.6744 64.6836 44.6553C61.0675 40.8555 62.3461 34.0043 68.0609 33.6882C72.4002 33.9269 74.402 37.9138 74.4279 40.662Z" fill="#094F90"/>
<path d="M7.63274 40.662C6.67705 45.081 4.44925 47.8228 3.23526 46.0874C1.49176 43.6231 3.48709 34.0818 6.57373 33.6882C8.39472 33.9334 8.18808 38.1008 7.63274 40.662Z" fill="#094F90"/>
<path d="M25.0804 40.662C24.0602 46.2487 18.6424 48.6744 16.1628 44.6553C13.8252 40.8555 16.2467 34.0043 21.1027 33.6882C24.7188 33.9269 25.5841 37.9138 25.0804 40.662Z" fill="#094F90"/>
<path d="M81.6343 28.3208C82.7321 32.4754 79.6842 35.0236 76.1068 32.9463C71.4123 30.2239 70.8827 23.2695 74.3568 22.3083C74.628 22.2502 74.9057 22.218 75.1834 22.2051C78.5735 22.4051 80.9692 25.9081 81.6343 28.3208Z" fill="#094F90"/>
<path d="M93.6322 28.3206C95.0787 31.7333 94.8397 34.2816 93.051 33.559C89.9321 32.301 85.8639 22.8694 88.1499 22.2307H88.3694C90.0613 22.4178 92.4182 25.5531 93.6322 28.3464" fill="#094F90"/>
<path d="M98.3202 54.1255C97.8811 58.5381 95.86 61.2799 94.3296 59.5639C92.1147 57.0802 92.8831 47.0163 96.0602 46.6099C98.1136 46.8808 98.6237 51.1644 98.3267 54.1191L98.3202 54.1255Z" fill="#094F90"/>
<path d="M92.3601 40.6618C92.8896 45.2938 90.1904 48.0807 87.3427 45.8034C83.6103 42.8036 83.3068 34.3268 86.9036 33.7203C87.0198 33.7203 87.1684 33.7203 87.2846 33.6816C90.2744 33.9268 92.0501 37.9072 92.3472 40.6554" fill="#094F90"/>
<path d="M99.6828 40.662C100.406 44.2811 100.406 46.9325 99.6828 46.5842C98.7077 46.0681 95.5113 34.2301 97.1579 33.6882C98.0038 33.9334 99.1274 37.9138 99.644 40.662" fill="#094F90"/>
<path d="M69.0101 17.6441C70.166 21.1793 67.0083 23.3792 63.3793 21.5728C59.0399 19.4052 58.5491 13.9798 61.6745 12.8315C62.0361 12.7089 62.4171 12.6444 62.7981 12.6379C65.9816 12.8121 68.3967 15.7281 69.0166 17.6441H69.0101Z" fill="#094F90"/>
<path d="M42.3735 9.08965C40.6106 12.6572 35.7547 13.7345 35.0637 11.425C34.3663 9.11545 38.4926 5.63826 41.2822 5.45117C43.4067 5.57374 42.9353 7.95424 42.3735 9.07029" fill="#094F90"/>
<path d="M49.8253 17.6441C49.3281 21.7922 43.2323 23.805 40.6429 20.6761C38.3957 17.9537 40.7979 12.8637 45.4472 12.6379C46.0736 12.6379 46.6935 12.7799 47.2682 13.0444C47.8429 13.3089 48.3466 13.683 48.7663 14.1604C49.1796 14.6314 49.4896 15.1862 49.6704 15.7926C49.8512 16.3925 49.9093 17.0248 49.8318 17.6505L49.8253 17.6441Z" fill="#094F90"/>
<path d="M29.8397 9.08965C26.1138 12.5281 23.279 13.2958 23.195 12.1282C23.0401 10.1863 29.7041 5.6189 32.2548 5.45117C33.5785 5.5802 30.4725 8.50259 29.8397 9.07029" fill="#094F90"/>
<path d="M30.776 17.6441C28.5224 21.947 23.6599 23.4824 22.6526 21.0116C21.5419 18.2634 26.1589 12.8702 29.8203 12.6379C32.3451 12.8121 31.7446 15.799 30.776 17.6441Z" fill="#094F90"/>
<path d="M17.2542 17.6441C14.2322 21.4761 11.6234 23.0179 11.3974 21.7922C11.0099 19.6891 17.0799 12.9347 19.6176 12.6379C21.0641 12.8508 17.293 17.5989 17.2542 17.6441Z" fill="#094F90"/>
<path d="M82.9 17.6441C84.721 20.36 84.5079 22.476 82.4351 22.1793C78.6446 21.6374 73.9242 14.1669 75.629 12.8315C75.8227 12.7089 76.0423 12.6379 76.2747 12.6379C78.3282 12.7992 81.3373 15.3539 82.9 17.6441Z" fill="#094F90"/>
<path d="M88.5762 17.644C90.1841 19.5342 91.721 21.6954 91.5789 22.1792C90.9073 22.4372 83.0616 13.5475 83.1843 12.6572H83.2359C83.8752 12.8121 86.2967 14.9797 88.5827 17.6634" fill="#094F90"/>
<path d="M70.2887 9.08965C72.0063 10.9798 71.9612 12.6378 70.1854 12.6378C66.5046 12.6378 62.1007 6.96721 63.2372 5.68342C63.3276 5.59955 63.4374 5.54149 63.5536 5.50278C63.6698 5.46408 63.7925 5.44472 63.9152 5.45117C65.8266 5.5673 68.8035 7.46395 70.2951 9.0703" fill="#094F90"/>
<path d="M77.9345 9.08965C80.3624 10.9153 81.4344 12.412 80.879 12.612C79.8911 12.9797 70.9992 6.60594 70.9734 5.51568C71.0121 5.48343 71.0638 5.45762 71.1154 5.45117C72.0453 5.54794 75.1642 7.01236 77.9345 9.07029" fill="#094F90"/>
<path d="M55.9793 95.2907C54.3649 97.9873 50.8392 98.5937 50.1224 95.5745C49.7027 93.8069 51.091 91.8199 53.816 91.6909C56.399 91.8199 56.9479 93.6585 55.9857 95.31" fill="#094F90"/>
<path d="M65.9235 95.2906C63.7538 96.7356 59.9827 98.3226 60.1377 97.2001C60.2927 96.0776 64.0767 91.8843 67.37 91.6843C68.9972 91.794 68.4354 93.1294 67.0859 94.3809C66.7113 94.7035 66.3239 95.0067 65.9235 95.2841V95.2906Z" fill="#094F90"/>
<path d="M71.8966 95.2906C69.2943 96.6389 66.3949 97.6581 65.9558 97.5743C66.1302 97.0388 74.9122 91.8456 76.4039 91.6843C77.1271 91.794 75.6807 92.8907 75.2674 93.2262C74.2019 94.0068 73.0719 94.697 71.8902 95.2906H71.8966Z" fill="#094F90"/>
<path d="M58.8786 3.12874C60.3767 4.34157 60.2088 5.29634 59.124 5.43827C56.3667 5.79308 53.4027 1.95462 53.9581 1.22564C54.0291 1.12887 54.1453 1.12242 54.2938 1.11597C55.9663 1.39337 57.5419 2.08365 58.8786 3.12874Z" fill="#094F90"/>
<path d="M65.2198 3.12874C67.6672 4.21254 68.836 5.29634 68.2355 5.43827C68.0094 5.49633 67.3702 5.43827 65.504 4.62542C65.4329 4.62542 58.5623 1.25789 58.5042 1.11597H58.5816C60.8805 1.50949 63.1147 2.18687 65.2457 3.13519" fill="#094F90"/>
<path d="M67.8156 3.12884C69.5785 3.72235 71.2768 4.4965 72.8782 5.43837C72.7943 5.43837 72.7103 5.42547 72.6328 5.39321C70.3534 4.57391 68.1837 3.49656 65.9042 2.67726C63.6248 1.85796 62.0427 1.44508 61.1839 1.23219C61.0353 1.20639 60.8868 1.16768 60.7512 1.10962C63.1534 1.58701 65.5103 2.26438 67.8027 3.12884" fill="#094F90"/>
<path d="M41.4049 3.12884C37.2399 5.96092 35.5158 5.69642 35.7353 4.96743C36.1615 3.43205 41.8892 1.22574 43.8458 1.10962H43.9814C43.9814 1.18703 43.9814 1.36122 41.4049 3.09659" fill="#094F90"/>
<path d="M21.587 88.0523C22.8074 89.3684 24.7253 91.5747 23.86 91.594C21.5289 91.6456 13.7348 84.3171 14.8713 83.1623C14.9552 83.1042 15.0586 83.0655 15.1619 83.0591C17.0668 83.2784 20.8508 87.2588 21.5934 88.0523H21.587Z" fill="#094F90"/>
<path d="M34.2177 95.2196C37.1106 97.3936 36.8265 97.4775 36.678 97.5226C36.2583 97.6517 33.1458 96.6711 30.2335 94.9164C28.1284 93.6584 26.7401 92.2649 27.0823 91.7617C27.1663 91.6327 27.3729 91.6069 27.5279 91.594C28.8968 91.6972 31.144 92.9165 34.2177 95.2131" fill="#094F90"/>
<path d="M44.0717 95.2196C44.1363 95.355 45.5698 98.6452 41.8374 97.1356C38.3181 95.6905 36.1033 92.6004 38.0211 91.7617C38.3052 91.6521 38.6087 91.6004 38.9187 91.594C40.0164 91.6972 41.069 92.0907 41.973 92.723C42.8771 93.3552 43.6003 94.2132 44.0717 95.2131" fill="#094F90"/>
<path d="M28.4835 95.2196C30.0139 96.0389 31.6734 96.6066 33.1651 97.5227C32.0609 97.5227 22.6395 92.8327 21.8711 91.6199C22.8784 92.0521 23.8471 92.5682 24.764 93.1682C25.9134 93.8326 27.1532 94.5358 28.477 95.2454" fill="#094F90"/>
<path d="M22.5363 9.08965C19.299 11.3992 17.5662 12.5819 17.3381 12.6378C17.196 11.7088 26.2235 5.79309 27.7732 5.45117C27.7732 5.54794 27.7732 5.55439 26.5463 6.34144C25.3194 7.12848 24.2346 7.88327 22.5427 9.08965H22.5363Z" fill="#094F90"/>
<path d="M35.225 3.12881C31.4539 4.7072 29.4629 5.47704 29.252 5.43834C29.3036 4.4384 37.879 1.34828 40.617 1.09668C40.4103 1.20635 40.1908 1.29022 39.9583 1.34183C38.5958 1.78051 37.272 2.24499 35.2315 3.10945" fill="#094F90"/>
<path d="M10.5191 79.0401C12.3982 82.0786 12.5338 82.6593 12.6178 82.9625L12.5532 83.0657C12.1399 82.8786 11.0551 81.9561 8.35589 78.0015C8.14925 77.6789 7.86513 77.279 7.63266 76.9112C7.07733 76.0145 6.39284 74.8404 5.88916 73.9114C5.63733 73.4469 5.48881 72.9309 5.4436 72.4019L5.57275 72.4212C5.94082 72.4406 9.62154 77.6402 10.4997 79.0595" fill="#094F90"/>
</g>
<defs>
<clipPath id="clip0_4823_94620">
<rect width="360" height="100" fill="white"/>
</clipPath>
</defs>
</svg>
